<?xml version="1.0" encoding="UTF-8"?>
<svg viewBox="0 0 156.48 374.89001" xmlns="http://www.w3.org/2000/svg" xmlns:xlink="http://www.w3.org/1999/xlink">
 <defs>
  <filter id="g">
   <feGaussianBlur stdDeviation=".47075"/>
  </filter>
  <linearGradient id="a">
   <stop stop-color="#1a1a1a" offset="0"/>
   <stop stop-color="#1a1a1a" stop-opacity="0" offset="1"/>
  </linearGradient>
  <linearGradient id="f" x1="72.116" x2="69.571" y1="183.15" y2="184.62" gradientUnits="userSpaceOnUse" xlink:href="#a"/>
  <linearGradient id="e" x1="71.625" x2="69.08" y1="182.44" y2="183.91" gradientUnits="userSpaceOnUse" xlink:href="#a"/>
  <linearGradient id="d" x1="71.045" x2="68.5" y1="181.59" y2="183.06" gradientUnits="userSpaceOnUse" xlink:href="#a"/>
  <linearGradient id="c" x1="70.286" x2="67.741" y1="180.72" y2="182.19" gradientUnits="userSpaceOnUse" xlink:href="#a"/>
  <linearGradient id="b" x1="64.259" x2="67.473" y1="191.03" y2="174.96" gradientUnits="userSpaceOnUse" xlink:href="#a"/>
 </defs>
 <g transform="matrix(2.5688 0 0 2.5688 -112.71 -329.38)">
  <path d="m63.64 267.05s-8.5863-3.283-13.132 0.75762-4.2932 4.7982-4.2932 4.7982l22.223-0.50507-2.2728-5.0508h-2.5254z" fill="#241c1c" fill-rule="evenodd"/>
  <path d="m62.882 221.85s3.283 28.284 2.2728 35.86-4.0406 8.8388-4.0406 8.8388l7.3236 2.0203s-3.283-37.123-2.0203-38.638 17.173-3.0304 17.678-0.50507 1.2627 40.406 1.2627 40.406l4.7982-3.283s-3.283-0.25253-3.283-3.7881-1.0102-40.659-1.0102-40.659l-22.981-0.25253z" fill="#483737" fill-rule="evenodd"/>
  <path d="m85.87 166.29-15.156 7.0625 0.15625 0.21875c-2.971 0.60368-5.4817 1.3649-6.2188 2.3125-3.5355 4.5457-5.0422 11.611-7.0625 16.156s-4.0625-7.5625-4.0625-7.5625l-5.0312 4.0312s2.5067 13.636 8.0625 15.656 9.5938-15.156 9.5938-15.156l0.53125 2.5312c1.5972 7.986-10.381 25.766-7.3506 28.544 6.1966 5.6802 19.473 3.3572 26.29 2.5051 4.0406-0.50508 5.2889-2.2701 3.016-8.8361-0.61085-1.7647-1.3862-7.0136-1.299-9.9629-2.568-1.6666-4.5-2.6562-4.5-2.6562l2-8.5938s1.1384 1.2805 2.7188 2.7188c0.19009-5.9095 0.58562-11.303 1.8438-12.812 2.5254-3.0305 5.0422 0.50081 7.0625 3.5312s2.5305 9.5945-0.5 12.625c-1.894 1.894-5.7724-0.94661-8.4062-3.3438-0.09172 2.8513-0.13858 5.8196-0.21875 8.5312 0.65694 0.42633 1.3423 0.86057 2.0625 1.375 3.5355 2.5254 11.61 3.0347 13.125-3.5312s0.49412-21.209-2.0312-25.25c-1.8899-3.0239-10.269-4.0724-14.375-4.4062 0.81449-2.6613-0.25-5.6875-0.25-5.6875z" fill="#d42020" fill-rule="evenodd"/>
  <path d="m72.214 133.45c-11.152 0-20.188 9.0667-20.188 20.219 0 4.5616 1.5407 8.7421 4.0938 12.125 4.1815 0.93864 13.836 2.6042 19.656-0.5 7.5762-4.0406 10.094-7.0938 10.094-7.0938s-2.0125 9.1098-10.094 10.625c-5.3074 0.99514-12.317 0.64392-16.531 0.3125 3.512 2.9503 8.0265 4.7188 12.969 4.7188 11.152 0 20.219-9.0354 20.219-20.188s-9.0667-20.219-20.219-20.219z" fill="#ffb380"/>
  <path transform="translate(-121.72 16.668)" d="m183.34 137.75c0 2.65-1.5829 4.7982-3.5355 4.7982s-3.5355-2.1482-3.5355-4.7982 1.5829-4.7982 3.5355-4.7982 3.5355 2.1482 3.5355 4.7982z" fill="#fff"/>
  <path transform="translate(-121.72 16.668)" d="m200.52 136.24c0 4.0447-2.6005 7.3236-5.8084 7.3236s-5.8084-3.2789-5.8084-7.3236 2.6005-7.3236 5.8084-7.3236 5.8084 3.2789 5.8084 7.3236z" fill="#fff"/>
  <path d="m73.489 194.82 13.385-11.112 1.2627 1.5152-13.637 11.112-2.7779 0.25254 1.7678-1.7678z" fill="#4d4d4d" fill-rule="evenodd"/>
  <path d="m84.348 193.56s-0.25254-1.2627-1.5152-2.2728-4.2932-1.7678-5.8084 0.25254 2.0203 1.2627 2.0203 1.2627-2.0203 2.0203-2.0203 3.5355-0.75761 3.7881 2.0203 4.0406 4.7982-1.7678 4.7982-1.7678l0.50508-5.0508z" fill="#ffb380" fill-rule="evenodd"/>
  <path transform="translate(-121.72 16.162)" d="m195.72 140.91c0 1.1855-0.90452 2.1466-2.0203 2.1466s-2.0203-0.96105-2.0203-2.1466 0.90452-2.1466 2.0203-2.1466 2.0203 0.96105 2.0203 2.1466z" fill="#4d4d4d"/>
  <path transform="translate(-121.72 16.668)" d="m181.57 140.15c0 1.046-0.79146 1.894-1.7678 1.894s-1.7678-0.84799-1.7678-1.894 0.79146-1.894 1.7678-1.894 1.7678 0.84799 1.7678 1.894z" fill="#4d4d4d"/>
  <path d="m86.369 266.42s-8.5863-3.283-13.132 0.75762-4.2932 4.7982-4.2932 4.7982l22.223-0.50507-2.2728-5.0508h-2.5254z" fill="#241c1c" fill-rule="evenodd"/>
  <path d="m54.296 178.16s-0.25254-3.0305 1.0102-3.5355 9.0914-3.0305 10.607-1.7678 11.112 15.91 10.607 17.425-10.859 2.7779-12.374 2.0203-10.102-13.89-9.849-14.142z" fill="#333" fill-rule="evenodd"/>
  <path d="m54.993 178.5s-0.0093-1.1517 2.0101-1.2669 5.0415-1.1517 6.1798-0.92138 10.715 13.475 10.594 14.166-7.5604 1.958-8.954 1.3821-9.7028-13.245-9.83-13.36z" fill="url(#b)" fill-rule="evenodd"/>
  <path d="m49.497 186.49s0.25254-3.0304 2.0203-6.0609 6.3134-5.3033 5.8084-2.0203-1.2627 2.0203-1.2627 2.0203 4.0406-0.75762 3.5355 1.5152-2.7779 0.75761-2.7779 0.75761 6.0609 2.2728 3.5355 3.0305-4.0406-1.0102-4.0406-1.0102 0 2.0203-2.7779 3.0304-4.0406-1.2627-4.0406-1.2627z" fill="#ffb380" fill-rule="evenodd"/>
  <path d="m60.167 173.8s4.0406-0.75762 4.672-0.56821 9.2176 12.438 9.5964 13.7 0.75761 2.5885 0.50507 2.4622-0.44194-2.4622-2.0203-4.5457-8.2706-10.985-8.2706-10.985l-6.6923 1.1364s0.94702-0.69448 2.2097-1.1996z" fill="#808080" fill-rule="evenodd" filter="url(#g)" opacity=".74519"/>
  <path d="m69.88376,180.27093c0,0-.35714.84821-.75893,1.07143s-1.60714.53571-1.60714.53571l.35714.3125c0,0 1.96429-.49107 2.05358-.98214s.35714-.625.35714-.625l-.40179-.3125z" fill="url(#c)" fill-rule="evenodd"/>
  <path d="m70.64268,181.14147c0,0-.35714.84821-.75893,1.07143s-1.60714.53571-1.60714.53571l.35714.3125c0,0 1.96429-.49107 2.05358-.98214s.35714-.625.35714-.625l-.40179-.3125z" fill="url(#d)" fill-rule="evenodd"/>
  <path d="m71.22305,181.98968c0,0-.35714.84821-.75893,1.07143s-1.60714.53571-1.60714.53571l.35714.3125c0,0 1.96429-.49107 2.05358-.98214s.35714-.625.35714-.625l-.40179-.3125z" fill="url(#e)" fill-rule="evenodd"/>
  <path d="m71.71412,182.70397c0,0-.35714.84821-.75893,1.07143s-1.60714.53571-1.60714.53571l.35714.3125c0,0 1.96429-.49107 2.05358-.98214s.35714-.625.35714-.625l-.40179-.3125z" fill="url(#f)" fill-rule="evenodd"/>
  <path transform="matrix(1 -.18182 0 1 -122.35 50.336)" d="m186.16072,156.99626c0,.2219-.43972.40179-.98215.40179s-.98214-.17989-.98214-.40179 .43972-.40178.98214-.40178c.35874,0 .68893.08.86132.20871" fill="#0f0" opacity=".74519"/>
  <path d="m51.964 145.7 2.1429 1.25h0.35714" fill="none" stroke="#784421"/>
  <path d="m55.893 140.52 1.6071 1.9643" fill="none" stroke="#784421"/>
  <path d="m53.393 142.84 1.9643 1.7857" fill="none" stroke="#784421"/>
  <path d="m62.321 139.27 0.71428 2.8572" fill="none" stroke="#784421"/>
  <path d="m56.964 136.95 2.1429 2.3214" fill="none" stroke="#784421"/>
  <path d="m61.607 134.45 1.6071 2.8572" fill="none" stroke="#784421"/>
  <path d="m67.679 135.34 0.35714 3.2143" fill="none" stroke="#784421"/>
  <path d="m65 132.67v3.0357" fill="none" stroke="#784421"/>
  <path d="m71.786 135.17-0.17857 3.2143" fill="none" stroke="#784421"/>
  <path d="m69.107 131.06v3.0357" fill="none" stroke="#784421"/>
  <path d="m76.607 132.67-0.71429 2.6786" fill="none" stroke="#784421"/>
  <path d="m79.643 135.34-2.3214 3.0357" fill="none" stroke="#784421"/>
  <path d="m73.571 131.59v3.0357" fill="none" stroke="#784421"/>
  <path d="m82.679 136.77-1.9643 2.3214" fill="none" stroke="#784421"/>
  <path d="m85.893 136.59-1.9643 2.5" fill="none" stroke="#784421"/>
  <path d="m88.75 140.17-2.3214 2.5" fill="none" stroke="#784421"/>
  <path d="m90.893 143.92-2.5 0.71429" fill="none" stroke="#784421"/>
  <path d="m92.679 146.59-3.3929 0.35714" fill="none" stroke="#784421"/>
  <path d="m51.25 148.2 2.8571 0.89286" fill="none" stroke="#784421"/>
  <path d="m59.464 140.88 1.4286 2.3214" fill="none" stroke="#784421"/>
  <path d="m81.964 134.99-1.9643 1.7857" fill="none" stroke="#784421"/>
  <path d="m79.286 132.49-1.6071 3.0357" fill="none" stroke="#784421"/>
  <path d="m87.143 138.2-1.7857 1.7857" fill="none" stroke="#784421"/>
 </g>
</svg>
